<svg xmlns="http://www.w3.org/2000/svg" viewBox="0 0 64 64">
  <!-- Book cover -->
  <path d="M12 6 C12 6 14 4 32 4 C50 4 52 6 52 6 L52 56 C52 56 50 58 32 58 C14 58 12 56 12 56 Z" fill="#4338ca" stroke="#312e81" stroke-width="1.5"/>
  <!-- Book spine -->
  <path d="M12 6 L12 56" stroke="#312e81" stroke-width="3" stroke-linecap="round"/>
  <!-- Pages -->
  <path d="M15 8 C15 8 17 7 32 7 C47 7 49 8 49 8 L49 53 C49 53 47 54 32 54 C17 54 15 53 15 53 Z" fill="#f5f5f4"/>
  <!-- Center crease -->
  <path d="M32 7 L32 54" stroke="#d6d3d1" stroke-width="0.75"/>
  <!-- Cross -->
  <rect x="29" y="16" width="6" height="24" rx="1" fill="#4338ca"/>
  <rect x="22" y="23" width="20" height="6" rx="1" fill="#4338ca"/>
  <!-- Page lines left -->
  <line x1="18" y1="44" x2="30" y2="44" stroke="#d6d3d1" stroke-width="0.75"/>
  <line x1="18" y1="47" x2="30" y2="47" stroke="#d6d3d1" stroke-width="0.75"/>
  <line x1="18" y1="50" x2="28" y2="50" stroke="#d6d3d1" stroke-width="0.75"/>
  <!-- Page lines right -->
  <line x1="34" y1="44" x2="46" y2="44" stroke="#d6d3d1" stroke-width="0.75"/>
  <line x1="34" y1="47" x2="46" y2="47" stroke="#d6d3d1" stroke-width="0.75"/>
  <line x1="36" y1="50" x2="46" y2="50" stroke="#d6d3d1" stroke-width="0.75"/>
</svg>
